<?xml version="1.0" standalone="no"?>
<!DOCTYPE svg PUBLIC "-//W3C//DTD SVG 1.1//EN" "http://www.w3.org/Graphics/SVG/1.1/DTD/svg11.dtd" >
<svg xmlns="http://www.w3.org/2000/svg" xmlns:xlink="http://www.w3.org/1999/xlink" version="1.1">
<metadata>
Created by FontForge 20170812 at Tue Feb 19 12:48:37 2019
 By root
Copyright Typo2 2018
</metadata>
<defs>
<font id="Super-Mario-World-Text-Box" horiz-adv-x="4095" >
  <font-face 
    font-family="Super Mario World Text Box"
    font-weight="400"
    font-stretch="normal"
    units-per-em="4096"
    panose-1="0 0 4 0 0 0 0 0 0 0"
    ascent="3276"
    descent="-820"
    x-height="2925"
    cap-height="4096"
    bbox="0 -585 8192 5266"
    underline-thickness="204"
    underline-position="307"
    unicode-range="U+0020-20AC"
  />
    <missing-glyph />
    <glyph glyph-name="space" unicode=" " horiz-adv-x="4096" 
 />
    <glyph glyph-name="exclam" unicode="!" horiz-adv-x="4096" 
d="M1170 0v585h1170v-585h-1170zM1170 1170v2926h1170v-2926h-1170z" />
    <glyph glyph-name="quotedbl" unicode="&#x22;" horiz-adv-x="4096" 
d="M0 2925v585h585v586h1170v-586h-585v-585h-1170zM2340 2925v585h585v586h1171v-586h-586v-585h-1170z" />
    <glyph glyph-name="numbersign" unicode="#" horiz-adv-x="4096" 
d="M1755 1170v585h-585v-585h585zM585 0v585h-585v585h585v585h-585v585h585v585h585v-585h585v585h585v-585h585v-585h-585v-585h585v-585h-585v-585h-585v585h-585v-585h-585z" />
    <glyph glyph-name="dollar" unicode="$" 
d="M2340 1170v585h-585v-585h585zM1755 2340v585h-585v-585h585zM1170 0v585h-1170v585h1170v585h-585v585h-585v585h585v585h1170v586h585v-586h1170v-585h-1170v-585h585v-585h585v-585h-585v-585h-1170v-585h-585z" />
    <glyph glyph-name="quotesingle" unicode="'" horiz-adv-x="4096" 
d="M1170 2925v585h585v586h1170v-586h-585v-585h-1170z" />
    <glyph glyph-name="parenleft" unicode="(" 
d="M2925 0v585h585v-585h-585zM1755 585v585h-585v1755h585v585h1170v-585h-585v-1755h585v-585h-1170zM2925 3510v586h585v-586h-585z" />
    <glyph glyph-name="parenright" unicode=")" 
d="M1170 0v585h585v-585h-585zM1755 585v585h585v1755h-585v585h1170v-585h585v-1755h-585v-585h-1170zM1170 3510v586h585v-586h-585z" />
    <glyph glyph-name="comma" unicode="," 
d="M0 0v585h585v585h1170v-585h-585v-585h-1170z" />
    <glyph glyph-name="hyphen" unicode="-" horiz-adv-x="3510" 
d="M0 1170v1170h2925v-1170h-2925z" />
    <glyph glyph-name="period" unicode="." horiz-adv-x="4096" 
d="M0 0v1170h1170v-1170h-1170z" />
    <glyph glyph-name="zero" unicode="0" 
d="M2340 585v2925h-1170v-2925h1170zM585 0v585h-585v2925h585v586h2340v-586h585v-2925h-585v-585h-2340z" />
    <glyph glyph-name="one" unicode="1" horiz-adv-x="4096" 
d="M585 0v585h585v2340h-585v585h585v586h1170v-3511h585v-585h-2340z" />
    <glyph glyph-name="two" unicode="2" 
d="M0 0v585h585v585h585v585h585v585h585v1170h-1170v-585h-1170v585h585v586h2340v-586h585v-1170h-585v-585h-585v-585h-585v-585h1755v-585h-3510z" />
    <glyph glyph-name="three" unicode="3" 
d="M585 0v585h-585v585h1170v-585h1170v1170h-585v585h585v1170h-1170v-585h-1170v585h585v586h2340v-586h585v-1170h-585v-585h585v-1170h-585v-585h-2340z" />
    <glyph glyph-name="four" unicode="4" 
d="M585 1755v1170h585v-1170h-585zM1755 0v585h-1755v1170h585v-585h1170v1755h-585v585h585v586h1170v-2926h585v-585h-585v-585h-1170z" />
    <glyph glyph-name="five" unicode="5" 
d="M0 0v585h2340v1170h-2340v2341h2925v-586h-1755v-1170h1755v-585h585v-1170h-585v-585h-2925z" />
    <glyph glyph-name="six" unicode="6" 
d="M2340 585v1170h-1170v-1170h1170zM585 0v585h-585v2925h585v586h2340v-586h585v-585h-1170v585h-1170v-1170h1755v-585h585v-1170h-585v-585h-2340z" />
    <glyph glyph-name="seven" unicode="7" 
d="M1170 0v1755h585v1170h585v585h-1170v-585h-1170v1171h3510v-1171h-585v-1170h-585v-1755h-1170z" />
    <glyph glyph-name="eight" unicode="8" 
d="M2340 585v1170h-1170v-1170h1170zM2340 2340v1170h-1170v-1170h1170zM585 0v585h-585v1170h585v585h-585v1170h585v586h2340v-586h585v-1170h-585v-585h585v-1170h-585v-585h-2340z" />
    <glyph glyph-name="nine" unicode="9" 
d="M2340 2340v1170h-1170v-1170h1170zM585 0v585h-585v585h1170v-585h1170v1170h-1755v585h-585v1170h585v586h2340v-586h585v-2925h-585v-585h-2340z" />
    <glyph glyph-name="question" unicode="?" 
d="M1170 0v585h1170v-585h-1170zM1170 1170v585h585v585h585v1170h-1170v-585h-1170v585h585v586h2340v-586h585v-1170h-585v-585h-585v-585h-1170z" />
    <glyph glyph-name="at" unicode="@" horiz-adv-x="8777" 
d="M4681 585v1170h-1171v-1170h1171zM2340 0v585h-585v2340h585v585h2926v-585h1170v-2340h-585v-585h-3511zM7021 2340v1170h1171v-1170h-1171zM585 3510v1171h585v585h1170v-1170h-585v-586h-1170zM3510 4096v1170h1171v-1170h-1171zM5266 4096v1170h1170v-1170h-1170z
" />
    <glyph glyph-name="A" unicode="A" 
d="M0 0v2925h585v585h585v-1755h1170v1755h585v-585h585v-2925h-1170v1170h-1170v-1170h-1170zM1170 3510v586h1170v-586h-1170z" />
    <glyph glyph-name="B" unicode="B" 
d="M2340 585v1170h-1170v-1170h1170zM2340 2340v1170h-1170v-1170h1170zM0 0v4096h2925v-586h585v-1170h-585v-585h585v-1170h-585v-585h-2925z" />
    <glyph glyph-name="C" unicode="C" 
d="M585 0v585h-585v2925h585v586h2340v-586h585v-585h-1170v585h-1170v-2925h1170v585h1170v-585h-585v-585h-2340z" />
    <glyph glyph-name="D" unicode="D" 
d="M2340 585v2925h-1170v-2925h1170zM0 0v4096h2925v-586h585v-2925h-585v-585h-2925z" />
    <glyph glyph-name="E" unicode="E" 
d="M0 0v4096h3510v-586h-2340v-1170h1755v-585h-1755v-1170h2340v-585h-3510z" />
    <glyph glyph-name="F" unicode="F" 
d="M0 0v4096h3510v-586h-2340v-1170h1755v-585h-1755v-1755h-1170z" />
    <glyph glyph-name="G" unicode="G" 
d="M2925 0v585h-585v1170h-585v585h1755v-2340h-585zM585 0v585h-585v2925h585v586h2340v-586h585v-585h-1170v585h-1170v-2925h1170v-585h-1755z" />
    <glyph glyph-name="H" unicode="H" 
d="M0 0v4096h1170v-1756h1170v1756h1170v-4096h-1170v1755h-1170v-1755h-1170z" />
    <glyph glyph-name="I" unicode="I" horiz-adv-x="4096" 
d="M585 0v585h585v2925h-585v586h2340v-586h-585v-2925h585v-585h-2340z" />
    <glyph glyph-name="J" unicode="J" 
d="M585 0v585h-585v585h1170v-585h585v2925h-585v586h2340v-586h-585v-2925h-585v-585h-1755z" />
    <glyph glyph-name="K" unicode="K" 
d="M0 0v4096h1170v-1171h585v585h585v586h1170v-586h-585v-585h-585v-585h-585v-585h585v-585h585v-585h585v-585h-1170v585h-585v585h-585v-1170h-1170z" />
    <glyph glyph-name="L" unicode="L" 
d="M0 0v4096h1170v-3511h2340v-585h-3510z" />
    <glyph glyph-name="M" unicode="M" 
d="M0 0v4096h585v-586h585v-585h585v585h585v586h1170v-4096h-1170v1755h-585v-585h-585v585h-585v-1755h-585z" />
    <glyph glyph-name="N" unicode="N" 
d="M0 0v4096h1170v-586h585v-585h585v-585h585v1756h585v-4096h-585v585h-585v585h-585v585h-585v585h-585v-2340h-585z" />
    <glyph glyph-name="O" unicode="O" 
d="M2340 585v2925h-1170v-2925h1170zM585 0v585h-585v2925h585v586h2340v-586h585v-2925h-585v-585h-2340z" />
    <glyph glyph-name="P" unicode="P" 
d="M2340 1755v1755h-1170v-1755h1170zM0 0v4096h2925v-586h585v-1755h-585v-585h-1755v-1170h-1170z" />
    <glyph glyph-name="Q" unicode="Q" 
d="M2925 0v585h585v-585h-585zM1755 585v585h585v2340h-1170v-1755h585v-585h-585v-585h585zM585 0v585h-585v2925h585v586h2340v-586h585v-2340h-585v-585h-585v-585h-1755z" />
    <glyph glyph-name="R" unicode="R" 
d="M2340 2340v1170h-1170v-1170h1170zM0 0v4096h2925v-586h585v-1170h-585v-585h-585v-585h585v-585h585v-585h-1170v585h-585v585h-585v-1170h-1170z" />
    <glyph glyph-name="S" unicode="S" 
d="M585 0v585h-585v585h1170v-585h1170v1170h-1755v585h-585v1170h585v586h2340v-586h585v-585h-1170v585h-1170v-1170h1755v-585h585v-1170h-585v-585h-2340z" />
    <glyph glyph-name="T" unicode="T" 
d="M1170 0v3510h-1170v586h3510v-586h-1170v-3510h-1170z" />
    <glyph glyph-name="U" unicode="U" 
d="M585 0v585h-585v3511h1170v-3511h1170v3511h1170v-3511h-585v-585h-2340z" />
    <glyph glyph-name="V" unicode="V" 
d="M1170 0v585h-585v1170h-585v2341h1170v-2926h1170v2926h1170v-2341h-585v-1170h-585v-585h-1170z" />
    <glyph glyph-name="W" unicode="W" 
d="M585 0v1170h-585v2926h585v-2341h585v1755h585v-1755h585v2341h1170v-2926h-585v-1170h-1170v1170h-585v-1170h-585z" />
    <glyph glyph-name="X" unicode="X" 
d="M0 0v1170h585v585h585v585h-585v585h-585v1171h1170v-1171h1170v1171h1170v-1171h-585v-585h-585v-585h585v-585h585v-1170h-1170v1170h-1170v-1170h-1170z" />
    <glyph glyph-name="Y" unicode="Y" 
d="M1170 0v1755h-585v585h-585v1756h1170v-1756h1170v1756h1170v-1756h-585v-585h-585v-1755h-1170z" />
    <glyph glyph-name="Z" unicode="Z" 
d="M0 0v1170h585v585h585v585h585v585h585v585h-2340v586h3510v-1171h-585v-585h-585v-585h-585v-585h-585v-585h2340v-585h-3510z" />
    <glyph glyph-name="grave" unicode="`" horiz-adv-x="4096" 
d="M1755 2925v585h-585v586h1170v-586h585v-585h-1170z" />
    <glyph glyph-name="a" unicode="a" horiz-adv-x="4096" 
d="M585 0v585h-585v585h585v585h1755v585h-1755v585h2340v-585h585v-1755h586v-585h-1171v585h-585v585h-1170v-585h1170v-585h-1755z" />
    <glyph glyph-name="b" unicode="b" 
d="M2340 585v1170h-1170v-1170h1170zM0 0v3510h1170v-1170h1755v-585h585v-1170h-585v-585h-2925z" />
    <glyph glyph-name="c" unicode="c" 
d="M585 0v585h-585v1755h585v585h2925v-585h-2340v-1755h2340v-585h-2925z" />
    <glyph glyph-name="d" unicode="d" 
d="M2340 585v1170h-1170v-1170h1170zM585 0v585h-585v1170h585v585h1755v1170h1170v-3510h-2925z" />
    <glyph glyph-name="e" unicode="e" 
d="M2340 1755v585h-1170v-585h1170zM585 0v585h-585v1755h585v585h2340v-585h585v-1170h-2340v-585h1755v-585h-2340z" />
    <glyph glyph-name="f" unicode="f" 
d="M1170 0v1755h-1170v585h1170v585h585v585h1755v-585h-1170v-585h1170v-585h-1170v-1755h-1170z" />
    <glyph glyph-name="g" unicode="g" 
d="M2340 1170v1170h-1170v-1170h1170zM585 -585v585h1755v585h-1755v585h-585v1170h585v585h2340v-585h585v-2340h-585v-585h-2340z" />
    <glyph glyph-name="h" unicode="h" 
d="M0 0v3510h1170v-1170h1755v-585h585v-1755h-1170v1755h-1170v-1755h-1170z" />
    <glyph glyph-name="i" unicode="i" horiz-adv-x="4096" 
d="M1170 0v2340h1170v-2340h-1170zM1170 2925v585h1170v-585h-1170z" />
    <glyph glyph-name="j" unicode="j" horiz-adv-x="4096" 
d="M585 -585v585h585v2340h1170v-2340h-585v-585h-1170zM1170 2925v585h1170v-585h-1170z" />
    <glyph glyph-name="k" unicode="k" 
d="M0 0v3510h1170v-1755h585v585h585v585h1170v-585h-585v-585h-585v-585h585v-585h585v-585h-1170v585h-585v585h-585v-1170h-1170z" />
    <glyph glyph-name="l" unicode="l" horiz-adv-x="4096" 
d="M1170 0v3510h1170v-3510h-1170z" />
    <glyph glyph-name="m" unicode="m" 
d="M0 0v2925h2925v-585h585v-2340h-1170v2340h-585v-2340h-585v2340h-585v-2340h-585z" />
    <glyph glyph-name="n" unicode="n" 
d="M585 0v2925h2340v-585h585v-2340h-1170v2340h-1170v-2340h-585z" />
    <glyph glyph-name="o" unicode="o" 
d="M2340 585v1755h-1170v-1755h1170zM585 0v585h-585v1755h585v585h2340v-585h585v-1755h-585v-585h-2340z" />
    <glyph glyph-name="p" unicode="p" 
d="M2340 1170v1170h-1170v-1170h1170zM0 -585v3510h2925v-585h585v-1170h-585v-585h-1755v-1170h-1170z" />
    <glyph glyph-name="q" unicode="q" 
d="M2340 1170v1170h-1170v-1170h1170zM2340 -585v1170h-1755v585h-585v1170h585v585h2925v-3510h-1170z" />
    <glyph glyph-name="r" unicode="r" 
d="M585 0v2925h585v-585h585v585h1755v-585h-1170v-585h-585v-1755h-1170z" />
    <glyph glyph-name="s" unicode="s" 
d="M585 0v585h1755v585h-1755v585h-585v585h585v585h2340v-585h-1755v-585h1755v-585h585v-585h-585v-585h-2340z" />
    <glyph glyph-name="t" unicode="t" 
d="M1170 0v1755h-1170v585h1170v585h1170v-585h1170v-585h-1170v-1755h-1170z" />
    <glyph glyph-name="u" unicode="u" 
d="M585 0v585h-585v2340h1170v-2340h1170v2340h1170v-2925h-2925z" />
    <glyph glyph-name="v" unicode="v" 
d="M1170 0v585h1170v-585h-1170zM585 585v585h-585v1755h1170v-2340h-585zM2340 585v2340h1170v-1755h-585v-585h-585z" />
    <glyph glyph-name="w" unicode="w" 
d="M0 0v2925h585v-2340h585v2340h585v-2340h585v2340h1170v-2340h-585v-585h-2925z" />
    <glyph glyph-name="x" unicode="x" 
d="M0 0v585h585v585h585v585h-585v585h-585v585h1170v-585h1170v585h1170v-585h-585v-585h-585v-585h585v-585h585v-585h-1170v585h-1170v-585h-1170z" />
    <glyph glyph-name="y" unicode="y" 
d="M0 0v585h2340v585h-1755v585h-585v1170h1170v-1170h1170v1170h1170v-2340h-585v-585h-2925z" />
    <glyph glyph-name="z" unicode="z" 
d="M0 0v585h585v585h585v585h585v585h-1755v585h3510v-585h-585v-585h-585v-585h-585v-585h1755v-585h-3510z" />
    <glyph glyph-name="sterling" unicode="&#xa3;" 
d="M0 0v585h585v1170h-585v585h585v1170h585v586h2340v-586h-1755v-1170h1170v-585h-1170v-1170h1755v-585h-3510z" />
    <glyph glyph-name="yen" unicode="&#xa5;" 
d="M585 0v585h585v585h-585v585h585v585h-585v585h-585v1171h1170v-1171h1170v1171h1170v-1171h-585v-585h-585v-585h585v-585h-585v-585h585v-585h-2340z" />
    <glyph glyph-name="periodcentered" unicode="&#xb7;" horiz-adv-x="4096" 
d="M1170 1755v1170h1170v-1170h-1170z" />
    <glyph glyph-name="Aacute" unicode="&#xc1;" 
d="M0 0v1755h585v585h585v-1170h1170v1170h585v-585h585v-1755h-1170v585h-1170v-585h-1170zM1170 2340v1170h585v-585h585v-585h-1170zM1755 3510v586h585v-586h-585z" />
    <glyph glyph-name="Atilde" unicode="&#xc3;" 
d="M0 0v1755h585v585h585v-1170h1170v1170h585v-585h585v-1755h-1170v585h-1170v-585h-1170zM585 2925v585h585v-585h-585zM1170 2340v585h585v585h585v-1170h-1170zM1170 3510v586h585v-586h-585zM2340 3510v586h585v-586h-585z" />
    <glyph glyph-name="Ccedilla" unicode="&#xc7;" 
d="M585 -585v585h585v585h-585v585h-585v2340h585v586h2340v-586h585v-585h-1170v585h-1170v-2340h1170v585h1170v-585h-585v-585h-585v-585h-585v-585h-1170z" />
    <glyph glyph-name="Eacute" unicode="&#xc9;" 
d="M0 0v2925h1170v585h585v-585h1755v-585h-2340v-585h1755v-585h-1755v-585h2340v-585h-3510zM1755 3510v586h585v-586h-585z" />
    <glyph glyph-name="Iacute" unicode="&#xcd;" horiz-adv-x="4096" 
d="M585 0v585h585v1755h-585v585h585v585h585v-585h1170v-585h-585v-1755h585v-585h-2340zM1755 3510v586h585v-586h-585z" />
    <glyph glyph-name="Ntilde" unicode="&#xd1;" 
d="M0 0v2925h585v585h585v-1170h585v-585h585v-585h585v1755h585v-2925h-1170v585h-585v585h-585v585h-585v-1755h-585zM1755 2925v585h585v-585h-585zM1170 3510v586h585v-586h-585zM2340 3510v586h585v-586h-585z" />
    <glyph glyph-name="Oacute" unicode="&#xd3;" 
d="M2340 585v1755h-1170v-1755h1170zM585 0v585h-585v1755h585v585h585v585h585v-585h1170v-585h585v-1755h-585v-585h-2340zM1755 3510v586h585v-586h-585z" />
    <glyph glyph-name="Otilde" unicode="&#xd5;" 
d="M2340 585v1755h-1170v-1755h1170zM585 0v585h-585v1755h585v1170h585v-585h585v585h585v-585h585v-585h585v-1755h-585v-585h-2340zM1170 3510v586h585v-586h-585zM2340 3510v586h585v-586h-585z" />
    <glyph glyph-name="Uacute" unicode="&#xda;" 
d="M585 0v585h-585v2340h1170v-2340h1170v2340h1170v-2340h-585v-585h-2340zM1170 2925v585h585v-585h-585zM1755 3510v586h585v-586h-585z" />
    <glyph glyph-name="Udieresis" unicode="&#xdc;" 
d="M585 0v585h-585v2340h1170v-2340h1170v2340h1170v-2340h-585v-585h-2340zM585 3510v586h585v-586h-585zM2340 3510v586h585v-586h-585z" />
    <glyph glyph-name="aacute" unicode="&#xe1;" horiz-adv-x="4096" 
d="M585 0v585h-585v585h585v585h1755v585h-1755v585h585v585h585v-585h1170v-585h585v-1755h586v-585h-1171v585h-585v585h-1170v-585h1170v-585h-1755zM1755 3510v586h585v-586h-585z" />
    <glyph glyph-name="atilde" unicode="&#xe3;" horiz-adv-x="4096" 
d="M585 0v585h-585v585h585v585h1755v585h-1755v1170h585v-585h585v585h585v-585h585v-585h585v-1755h586v-585h-1171v585h-585v585h-1170v-585h1170v-585h-1755zM1170 3510v586h585v-586h-585zM2340 3510v586h585v-586h-585z" />
    <glyph glyph-name="ccedilla" unicode="&#xe7;" 
d="M585 -585v585h585v585h-585v585h-585v1755h585v585h2925v-585h-2340v-1755h2340v-585h-1170v-585h-585v-585h-1170z" />
    <glyph glyph-name="eacute" unicode="&#xe9;" 
d="M2340 1755v585h-1170v-585h1170zM585 0v585h-585v1755h585v585h585v585h585v-585h1170v-585h585v-1170h-2340v-585h1755v-585h-2340zM1755 3510v586h585v-586h-585z" />
    <glyph glyph-name="iacute" unicode="&#xed;" horiz-adv-x="4096" 
d="M1170 0v2340h1170v-2340h-1170zM1170 2925v585h585v-585h-585zM1755 3510v586h585v-586h-585z" />
    <glyph glyph-name="ntilde" unicode="&#xf1;" 
d="M585 0v3510h585v-585h585v585h585v-585h585v-585h585v-2340h-1170v2340h-1170v-2340h-585zM1170 3510v586h585v-586h-585zM2340 3510v586h585v-586h-585z" />
    <glyph glyph-name="oacute" unicode="&#xf3;" 
d="M2340 585v1755h-1170v-1755h1170zM585 0v585h-585v1755h585v585h585v585h585v-585h1170v-585h585v-1755h-585v-585h-2340zM1755 3510v586h585v-586h-585z" />
    <glyph glyph-name="otilde" unicode="&#xf5;" 
d="M2340 585v1755h-1170v-1755h1170zM585 0v585h-585v1755h585v1170h585v-585h585v585h585v-585h585v-585h585v-1755h-585v-585h-2340zM1170 3510v586h585v-586h-585zM2340 3510v586h585v-586h-585z" />
    <glyph glyph-name="uacute" unicode="&#xfa;" 
d="M585 0v585h-585v2340h1170v-2340h1170v2340h1170v-2925h-2925zM1170 2925v585h585v-585h-585zM1755 3510v586h585v-586h-585z" />
    <glyph glyph-name="udieresis" unicode="&#xfc;" 
d="M585 0v585h-585v2340h1170v-2340h1170v2340h1170v-2925h-2925zM585 3510v586h585v-586h-585zM2340 3510v586h585v-586h-585z" />
    <glyph glyph-name="quoteleft" unicode="&#x2018;" horiz-adv-x="4096" 
d="M1170 2925v585h585v586h1170v-586h-585v-585h-1170z" />
    <glyph glyph-name="quoteright" unicode="&#x2019;" horiz-adv-x="4096" 
d="M1170 2925v585h585v586h1170v-586h-585v-585h-1170z" />
    <glyph glyph-name="quotedblleft" unicode="&#x201c;" horiz-adv-x="4096" 
d="M0 2925v585h585v586h1170v-586h-585v-585h-1170zM2340 2925v585h585v586h1171v-586h-586v-585h-1170z" />
    <glyph glyph-name="quotedblright" unicode="&#x201d;" horiz-adv-x="4096" 
d="M0 2925v585h585v586h1170v-586h-585v-585h-1170zM2340 2925v585h585v586h1171v-586h-586v-585h-1170z" />
    <glyph glyph-name="bullet" unicode="&#x2022;" horiz-adv-x="4096" 
d="M1170 1755v1170h1170v-1170h-1170z" />
    <glyph glyph-name="Euro" unicode="&#x20ac;" 
d="M1170 0v585h-585v585h-585v585h585v585h-585v585h585v585h585v586h2340v-586h-1755v-585h1170v-585h-1170v-585h1170v-585h-1170v-585h1755v-585h-2340z" />
  </font>
</defs>
</svg>
